PathFileType	4	(X/Y/Z)	Patient4_TMGait_0pt3_02_left_14.trc.trc
DataRate	CameraRate	NumFrames	NumMarkers	Units	OrigDataRate	OrigDataStartFrame	OrigNumFrames
52.044609665427	52.044609665427	7	33	mm	52.044609665427	36	       141
Frame#	Time	Sacral			L.Shoulder			Chest			R.Shoulder			Neck			R.ASIS			L.ASIS			R.Thigh.Superior			R.Thigh.Lateral			R.Thigh.Inferior			R.Patella			L.Thigh.Superior			L.Thigh.Lateral			L.Thigh.Inferior			L.Patella			L.Shank.Superior			L.Shank.Lateral			L.Shank.Inferior			R.Shank.Superior			R.Shank.Lateral			R.Shank.Inferior			R.Heel			R.Midfoot.Superior			R.Midfoot.Lateral			R.Toe			L.Heel			L.Midfoot.Lateral			L.Midfoot.Superior			L.Toe			L.Elbow			L.Wrist			R.Elbow			R.Wrist			
		X1	Y1	Z1	X2	Y2	Z2	X3	Y3	Z3	X4	Y4	Z4	X5	Y5	Z5	X6	Y6	Z6	X7	Y7	Z7	X8	Y8	Z8	X9	Y9	Z9	X10	Y10	Z10	X11	Y11	Z11	X12	Y12	Z12	X13	Y13	Z13	X14	Y14	Z14	X15	Y15	Z15	X16	Y16	Z16	X17	Y17	Z17	X18	Y18	Z18	X19	Y19	Z19	X20	Y20	Z20	X21	Y21	Z21	X22	Y22	Z22	X23	Y23	Z23	X24	Y24	Z24	X25	Y25	Z25	X26	Y26	Z26	X27	Y27	Z27	X28	Y28	Z28	X29	Y29	Z29	X30	Y30	Z30	X31	Y31	Z31	X32	Y32	Z32	X33	Y33	Z33	

36	27.752500000000	693.116828879082	1005.280107141314	513.377570162061	828.798053230630	1419.008842883929	285.305035312315	966.310860493353	1358.843830306571	422.330656087541	922.572543889208	1444.162527176515	605.035372068185	844.466807477472	1487.788867968550	439.102592550939	934.413347481796	930.488966875493	589.260270717979	879.363180303050	957.633604547921	322.525049182717	929.027184186768	715.383553528963	558.712595091657	833.858591643231	617.774220175711	628.276160937904	886.163369358027	554.943388328240	540.183889554269	866.521690022398	464.700807169816	547.308070450227	954.524953551607	762.441979124797	356.232849557035	883.049572259592	634.833559814255	295.461781375079	980.383271326797	570.967400304448	356.739642962120	989.692795863731	502.024895627034	362.902791563165	971.824839513108	428.093733984916	354.072915481712	895.726260642232	303.989505665854	303.107689182113	964.360221284560	199.193662852155	371.423459657877	815.562819133676	385.038381913822	558.871699479862	725.241334100459	301.813535019722	628.087884489490	737.192695540538	200.566302125389	564.411779329731	568.085638611383	56.219129016595	542.765880390394	743.945924413633	98.813900384307	576.408228032928	651.310201213722	44.377745370294	616.186276184257	858.327687262367	38.686081350275	605.940119466459	852.291085188097	37.459405279165	411.034665500110	929.094516400660	35.061469585945	332.357177769083	1009.824008439660	99.079249391799	360.340539668200	1139.486059982200	51.295720610582	337.905720407346	684.178517244509	1089.230567613187	221.871910163318	699.875452389204	829.256899075641	226.305516111541	1101.972530517709	1167.302766931816	729.262127616691	1309.756302397164	1285.002670133872	656.291880462209	
37	27.771714285714	693.577268123272	1006.376478776488	510.095666660424	829.693860740563	1419.257473874054	281.641242232213	967.038955126058	1359.388220044248	418.986325950984	923.041507086171	1445.123474073972	601.430174521278	845.008238273378	1488.516474076654	435.309311471447	934.591908542963	931.275044059195	586.875395035851	880.388504131969	958.164717085969	320.027682146652	928.524638531229	715.845846591893	557.104315798578	832.763897098216	618.732445299955	626.623105405604	885.322770299392	555.385711358892	538.957997571949	865.438455829294	464.772687285992	546.569099768699	954.538088257443	762.379372040748	353.973623063359	882.255863970484	635.041759580588	293.600744599113	979.144579193034	570.680333667626	354.978562832292	987.970829995300	501.664389235877	361.523471493879	969.500070646145	427.645513215807	352.932763766622	892.361805208818	304.075034147956	302.197754608227	959.767060365491	198.923556593833	371.128826398864	813.494812051321	385.785020760880	558.112705399208	722.105775843051	303.776668696093	627.310890193525	733.467958250077	202.054918680491	564.188056277495	563.082370180073	59.534650150021	542.752066500245	739.418154048557	99.536272576614	576.419672992611	646.138371773895	46.410100068549	616.128468644310	852.864692940821	38.182974342875	605.969895568374	846.583323361608	37.377611158662	410.953332601570	923.415032660808	35.078660752704	332.284398400479	1004.005960257823	99.208928280052	360.346556606634	1133.754984467672	51.702721971578	338.004468247365	689.788872710768	1086.869621892042	216.678395215651	719.307683964118	827.851768067117	217.136697741171	1102.311772924857	1167.804040980361	725.118410135190	1311.006056803599	1283.945848962064	651.890529321231	
38	27.790928571429	693.916829696286	1007.472365400351	506.814858048389	830.743925533058	1419.520838695941	277.967582495558	967.691805532471	1360.018649299121	415.873278832792	923.141456229741	1446.236864842734	597.948644691900	845.469387223226	1489.311568111564	431.533288750015	934.613619611263	932.196326611125	584.747545477106	881.462188964306	958.736457443495	317.716011241689	928.287668265434	716.526973169095	555.627120015380	832.121941742489	619.717232550455	625.027428951789	885.092963304342	555.949512027569	537.803830351864	865.065942700529	464.807860501322	545.964418427748	954.345120305501	762.089599805406	351.778652431933	881.090765474506	635.167098504942	291.855995752580	977.447039688667	570.239765617478	353.380139401231	985.753034954306	501.219802257327	360.290945169285	966.748233963264	427.178127819979	351.905498311084	888.681863580595	304.085731142266	301.408685223059	954.993951461342	198.650072254987	370.879384829250	811.983577210809	386.562836828113	557.417265831559	719.400570623496	305.898158736719	626.513026922839	730.050545524695	203.684833102181	563.980677830159	558.222900236351	63.251613611714	542.690190173892	735.071248893341	100.331940598298	576.428289333452	641.061191432117	48.698610162089	616.043333974362	847.441277338870	37.705902928230	605.993155825217	840.844918717089	37.297384017401	410.911719303034	917.680487390106	35.081857112372	332.233709599913	998.165238129158	99.274077696712	360.362601988112	1127.980896077299	52.011084595609	338.047201645262	696.579832014832	1084.336365522167	211.004017762190	739.567230115832	826.920476447897	207.866362184152	1101.756018759339	1168.066807373618	721.308771767258	1311.637875510069	1282.292853463994	647.907683130545	
39	27.810142857143	694.146847266202	1008.523981569828	503.543674711982	831.891803632685	1419.793383122637	274.338263502056	968.246517840939	1360.723264386512	413.007992289387	922.887391587531	1447.465092424526	594.626427085724	845.832866556788	1490.149820104737	427.831043902446	934.497489295067	933.207976914758	582.814968869799	882.562919773163	959.353097999160	315.544181273690	928.349818482127	717.390654451609	554.216221095222	831.995282794072	620.677600117313	623.446381679904	885.537956593887	556.591809954020	536.678730349234	865.468106507150	464.754932446606	545.466014987447	953.999760065640	761.620832145251	349.661308601661	879.663046562398	635.223910277156	290.226312705398	975.388104034167	569.676274684269	351.965774479577	983.130447284793	500.703312165580	359.236996602608	963.667256325075	426.698319927536	351.018533083553	884.796176355379	304.032307521220	300.729571035675	950.100433178081	198.365907368794	370.694887993857	811.090022808124	387.323332612933	556.767942965731	717.173412890408	308.147903167011	625.672687417182	726.972335481026	205.421276417811	563.775628707467	553.517226769457	67.336711826567	542.570198366114	730.912818185248	101.180368588340	576.435655599018	636.083596716587	51.214807526950	615.925028574234	842.052478698007	37.277710680631	606.008293155687	835.079955510746	37.227464995868	410.904142803797	911.901272506771	35.075060864578	332.206432147968	992.326652007037	99.252995331894	360.406011558159	1122.181502850079	52.178485938518	338.053565913602	704.705500595955	1081.653144208980	204.836948318558	760.435931244072	826.392239968254	198.614105481263	1100.317763874165	1168.058217723325	717.861808829587	1311.696394241184	1279.957441572390	644.433356723168	
40	27.829357142857	694.280928651948	1009.489854394710	500.272704937686	833.082598154885	1420.078446013658	270.808866907127	968.682432898589	1361.490598514793	410.404435092480	922.296323680704	1448.762094336817	591.501022963017	846.079892168036	1491.007253552443	424.264131303864	934.261015521509	934.261307134945	581.009455091472	883.679725988185	960.012727744600	313.460396216031	928.723539673483	718.391215391350	552.824187064586	832.405766309931	621.569013101142	621.848446950377	886.687079596188	557.268078012445	535.559628109492	866.670115496058	464.574021101046	545.059563262702	953.567843402985	761.026914256826	347.635372662857	878.104270712761	635.225667956233	288.697512618208	973.092730832912	569.022812220508	350.744149056903	980.233535601230	500.128279785749	358.378439096578	960.380163094628	426.210568050929	350.289406368424	880.828336514808	303.929514000626	300.144239391238	945.151373190057	198.065322897308	370.590302383186	810.850902825552	388.022940059743	556.160495211000	715.452140257167	310.495474573960	624.780092021029	724.259162475659	207.230804139471	563.569277030504	548.978348903695	71.755782712306	542.391233444887	726.949641024895	102.055334624589	576.449334123888	631.211736355165	53.924170855675	615.774104416152	836.692509324555	36.917393714284	606.013869487949	829.296049757274	37.174041499326	410.923463825217	906.092358795676	35.064832258404	332.203418046358	986.511291274521	99.138597067443	360.491616571404	1116.375140926536	52.186863260019	338.045552285274	714.258083865700	1078.883551038841	198.208219178493	781.718908347550	826.198286830746	189.502556160464	1098.022038099017	1167.742636531839	714.787495643813	1311.264242859930	1276.789840489407	641.553394360272	
41	27.848571428571	694.332206909526	1010.331420953344	496.976686529552	834.272165795782	1420.386465465813	267.430860491995	968.984218532380	1362.307459743041	408.074710852594	921.384010653575	1450.074318390483	588.609438506427	846.192603311961	1491.859931257775	420.893043575080	933.918819295140	935.306167376850	579.263492888167	884.810421940663	960.705773864383	311.412049512082	929.406637179793	719.478194587981	551.421748667752	833.346046243291	622.354790904762	620.215524736381	888.544154070938	557.935311287903	534.442347389713	868.671021409352	464.238454142374	544.743551953395	953.121323454018	760.360522415487	345.710748248997	876.554856855066	635.180905609095	287.245862053865	970.701791350575	568.310466025397	349.711622140861	977.218992582112	499.505624282159	357.715661811139	957.022672162301	425.713948204752	349.723875556247	876.902019729114	303.792513185098	299.634129872727	940.210239209310	197.742516696924	370.573448048101	811.286502182545	388.624869131215	555.602577273627	714.254542231898	312.913431087778	623.839256066997	721.935949843834	209.085718439825	563.369971284779	544.627359695234	76.485676677271	542.164699751616	723.190556313716	102.928483648494	576.483878962933	626.455759929634	56.794858898180	615.599582806242	831.354703990569	36.636390785521	606.008403339783	823.502149709859	37.140863527954	410.962422684246	900.269628167140	35.058287946672	332.224727666656	980.734920013086	98.935963957048	360.629295938315	1110.578314470819	52.035437690825	338.043127563427	725.250888964742	1076.131318356345	191.194138689797	803.251184280469	826.294598191657	180.653740821040	1094.902803461601	1167.082540738703	712.078579345353	1310.444652685148	1272.582114542641	639.342416860637	
42	27.867785714286	694.309780048950	1011.013200332438	493.617914469161	835.433530701134	1420.731996599967	264.248082834116	969.143971837674	1363.156448720671	406.029886983431	920.163555970287	1451.340945400852	585.986308159868	846.156797511208	1492.683327823844	417.772103485426	933.481056197493	936.293433471831	577.516101319554	885.958704091332	961.414727983044	309.350179728987	930.389828286965	720.601814479672	549.993654045885	834.794570776493	623.006707456136	618.541277722408	891.098966697800	558.555828784406	533.335519785365	871.459538928357	463.735618036950	544.524076089756	952.733358152581	759.668605305989	343.890869862070	875.152502157418	635.090953415984	285.843864335810	968.362724504235	567.565905615277	348.854984376180	974.257896872539	498.841500846709	357.234989301865	953.733266742458	425.200315214759	349.316905382938	873.130704546128	303.634526312374	299.182101671240	935.334375942712	197.390601836156	370.644612662234	812.410189551012	389.100840127098	555.109056690087	713.599928944676	315.381039428792	622.866545116575	720.032360689117	210.968609568638	563.196416379583	540.499550507466	81.527085824651	541.914514169112	719.648950491114	103.774181755529	576.559594386330	621.832955816501	59.809064342528	615.418827339545	826.030310995544	36.435452442345	605.990287252558	817.706805754887	37.129656269480	411.014408439088	894.447348360169	35.061755254271	332.269492076305	975.007380361754	98.659600239058	360.822898623401	1104.804363693779	51.734489490201	338.061474000889	737.610768343536	1073.530959029163	183.910810360176	824.903381823736	826.678393667934	172.182673696461	1090.999354960473	1166.037669944001	709.714109787345	1309.339112314085	1267.078824128863	637.858913571780	
